<mxfile host="drawio-plugin" agent="Mozilla/5.0 (Windows NT 10.0; Win64; x64) AppleWebKit/537.36 (KHTML, like Gecko) Chrome/122.0.0.0 Safari/537.36" modified="2025-04-24T07:15:09.466Z" version="22.1.22" etag="1M3CiJyOTTviaLnrbNYA" type="embed">
  <diagram name="PÃ¡gina-1" id="6-wawgPiirABvQqckJq7">
    <mxGraphModel dx="1086" dy="1929" grid="1" gridSize="10" guides="1" tooltips="1" connect="1" arrows="1" fold="1" page="1" pageScale="1" pageWidth="827" pageHeight="1169" math="0" shadow="0">
      <root>
        <mxCell id="0" />
        <mxCell id="1" parent="0" />
        <mxCell id="Blwmx_D9qHsXb_ZoC9wy-203" style="edgeStyle=entityRelationEdgeStyle;rounded=0;orthogonalLoop=1;jettySize=auto;html=1;endArrow=classic;startFill=0;strokeColor=default;startArrow=none;endFill=1;" parent="1" source="JyBoucRdllpGloIT8rtI-1" target="JyBoucRdllpGloIT8rtI-12" edge="1">
          <mxGeometry relative="1" as="geometry">
            <mxPoint x="380" y="-145" as="sourcePoint" />
            <mxPoint x="600" y="-60" as="targetPoint" />
          </mxGeometry>
        </mxCell>
        <mxCell id="Blwmx_D9qHsXb_ZoC9wy-204" style="edgeStyle=entityRelationEdgeStyle;rounded=0;orthogonalLoop=1;jettySize=auto;html=1;endArrow=classic;startFill=0;endFill=1;" parent="1" source="JyBoucRdllpGloIT8rtI-7" target="g5tavuga0tHeyg05Biz0-13" edge="1">
          <mxGeometry relative="1" as="geometry">
            <mxPoint x="380" y="-15" as="sourcePoint" />
            <mxPoint x="600" as="targetPoint" />
            <Array as="points">
              <mxPoint x="390" y="20" />
            </Array>
          </mxGeometry>
        </mxCell>
        <mxCell id="Blwmx_D9qHsXb_ZoC9wy-206" style="edgeStyle=entityRelationEdgeStyle;rounded=0;orthogonalLoop=1;jettySize=auto;html=1;endArrow=none;startFill=0;" parent="1" source="JyBoucRdllpGloIT8rtI-12" target="JyBoucRdllpGloIT8rtI-22" edge="1">
          <mxGeometry relative="1" as="geometry">
            <mxPoint x="740" as="sourcePoint" />
            <mxPoint x="870" y="-14.999999999999773" as="targetPoint" />
          </mxGeometry>
        </mxCell>
        <mxCell id="Blwmx_D9qHsXb_ZoC9wy-207" style="edgeStyle=orthogonalEdgeStyle;rounded=0;orthogonalLoop=1;jettySize=auto;html=1;endArrow=none;startFill=0;" parent="1" source="JyBoucRdllpGloIT8rtI-22" target="NOQlVdFscTQMoMnTkVEd-14" edge="1">
          <mxGeometry relative="1" as="geometry">
            <mxPoint x="977" y="-70" as="sourcePoint" />
            <mxPoint x="942" y="190" as="targetPoint" />
          </mxGeometry>
        </mxCell>
        <mxCell id="Blwmx_D9qHsXb_ZoC9wy-208" style="edgeStyle=entityRelationEdgeStyle;rounded=0;orthogonalLoop=1;jettySize=auto;html=1;entryX=1;entryY=0.5;entryDx=0;entryDy=0;endArrow=none;startFill=0;exitX=0;exitY=0.5;exitDx=0;exitDy=0;" parent="1" source="NOQlVdFscTQMoMnTkVEd-17" target="NOQlVdFscTQMoMnTkVEd-5" edge="1">
          <mxGeometry relative="1" as="geometry">
            <mxPoint x="872" y="295" as="sourcePoint" />
            <mxPoint x="750" y="235" as="targetPoint" />
          </mxGeometry>
        </mxCell>
        <mxCell id="Blwmx_D9qHsXb_ZoC9wy-213" value="(1, 1)" style="text;html=1;align=center;verticalAlign=middle;resizable=0;points=[];autosize=1;strokeColor=none;fillColor=none;" parent="1" vertex="1">
          <mxGeometry x="771" y="-242" width="50" height="30" as="geometry" />
        </mxCell>
        <mxCell id="Blwmx_D9qHsXb_ZoC9wy-214" value="(1, 1)" style="text;html=1;align=center;verticalAlign=middle;resizable=0;points=[];autosize=1;strokeColor=none;fillColor=none;" parent="1" vertex="1">
          <mxGeometry x="388" y="-242" width="50" height="30" as="geometry" />
        </mxCell>
        <mxCell id="Blwmx_D9qHsXb_ZoC9wy-215" value="(1, 1)" style="text;html=1;align=center;verticalAlign=middle;resizable=0;points=[];autosize=1;strokeColor=none;fillColor=none;" parent="1" vertex="1">
          <mxGeometry x="388" y="-24" width="50" height="30" as="geometry" />
        </mxCell>
        <mxCell id="Blwmx_D9qHsXb_ZoC9wy-216" style="edgeStyle=orthogonalEdgeStyle;rounded=0;orthogonalLoop=1;jettySize=auto;html=1;endArrow=none;startFill=0;" parent="1" source="NOQlVdFscTQMoMnTkVEd-30" target="NOQlVdFscTQMoMnTkVEd-14" edge="1">
          <mxGeometry relative="1" as="geometry">
            <mxPoint x="1194" y="425" as="sourcePoint" />
            <mxPoint x="1193.92" y="362.80600000000004" as="targetPoint" />
          </mxGeometry>
        </mxCell>
        <mxCell id="Blwmx_D9qHsXb_ZoC9wy-221" value="(1, 1)" style="text;html=1;align=center;verticalAlign=middle;resizable=0;points=[];autosize=1;strokeColor=none;fillColor=none;" parent="1" vertex="1">
          <mxGeometry x="561" y="336" width="50" height="30" as="geometry" />
        </mxCell>
        <mxCell id="Blwmx_D9qHsXb_ZoC9wy-223" value="(0, 1)" style="text;html=1;align=center;verticalAlign=middle;resizable=0;points=[];autosize=1;strokeColor=none;fillColor=none;" parent="1" vertex="1">
          <mxGeometry x="262" y="-200" width="50" height="30" as="geometry" />
        </mxCell>
        <mxCell id="Blwmx_D9qHsXb_ZoC9wy-224" value="(0, 1)" style="text;html=1;align=center;verticalAlign=middle;resizable=0;points=[];autosize=1;strokeColor=none;fillColor=none;" parent="1" vertex="1">
          <mxGeometry x="270" y="240" width="50" height="30" as="geometry" />
        </mxCell>
        <mxCell id="Blwmx_D9qHsXb_ZoC9wy-226" value="(0, N)" style="text;html=1;align=center;verticalAlign=middle;resizable=0;points=[];autosize=1;strokeColor=none;fillColor=none;" parent="1" vertex="1">
          <mxGeometry x="907" y="-374" width="50" height="30" as="geometry" />
        </mxCell>
        <mxCell id="Blwmx_D9qHsXb_ZoC9wy-227" value="(0, N)" style="text;html=1;align=center;verticalAlign=middle;resizable=0;points=[];autosize=1;strokeColor=none;fillColor=none;" parent="1" vertex="1">
          <mxGeometry x="1112" y="741" width="50" height="30" as="geometry" />
        </mxCell>
        <mxCell id="Blwmx_D9qHsXb_ZoC9wy-228" value="(0, N)" style="text;html=1;align=center;verticalAlign=middle;resizable=0;points=[];autosize=1;strokeColor=none;fillColor=none;" parent="1" vertex="1">
          <mxGeometry x="618" y="288" width="50" height="30" as="geometry" />
        </mxCell>
        <mxCell id="Blwmx_D9qHsXb_ZoC9wy-230" value="(1, N)" style="text;html=1;align=center;verticalAlign=middle;resizable=0;points=[];autosize=1;strokeColor=none;fillColor=none;" parent="1" vertex="1">
          <mxGeometry x="1070" y="-68" width="50" height="30" as="geometry" />
        </mxCell>
        <mxCell id="Blwmx_D9qHsXb_ZoC9wy-231" value="(1, N)" style="text;html=1;align=center;verticalAlign=middle;resizable=0;points=[];autosize=1;strokeColor=none;fillColor=none;" parent="1" vertex="1">
          <mxGeometry x="1218" y="465" width="50" height="30" as="geometry" />
        </mxCell>
        <mxCell id="Blwmx_D9qHsXb_ZoC9wy-232" value="(1, 1)" style="text;html=1;align=center;verticalAlign=middle;resizable=0;points=[];autosize=1;strokeColor=none;fillColor=none;" parent="1" vertex="1">
          <mxGeometry x="880" y="180" width="50" height="30" as="geometry" />
        </mxCell>
        <mxCell id="JyBoucRdllpGloIT8rtI-1" value="&amp;lt;&amp;lt;Java class&amp;gt;&amp;gt;&lt;div&gt;Client&lt;/div&gt;" style="swimlane;fontStyle=1;align=center;verticalAlign=top;childLayout=stackLayout;horizontal=1;startSize=40;horizontalStack=0;resizeParent=1;resizeParentMax=0;resizeLast=0;collapsible=1;marginBottom=0;whiteSpace=wrap;html=1;" parent="1" vertex="1">
          <mxGeometry x="70" y="-410" width="200" height="480" as="geometry">
            <mxRectangle x="240" y="-320" width="120" height="40" as="alternateBounds" />
          </mxGeometry>
        </mxCell>
        <mxCell id="JyBoucRdllpGloIT8rtI-5" value="- address : String" style="text;strokeColor=none;fillColor=none;align=left;verticalAlign=bottom;spacingLeft=4;spacingRight=4;overflow=hidden;rotatable=0;points=[[0,0.5],[1,0.5]];portConstraint=eastwest;whiteSpace=wrap;html=1;" parent="JyBoucRdllpGloIT8rtI-1" vertex="1">
          <mxGeometry y="40" width="200" height="24" as="geometry" />
        </mxCell>
        <mxCell id="JyBoucRdllpGloIT8rtI-6" value="- birthDate : String" style="text;strokeColor=none;fillColor=none;align=left;verticalAlign=bottom;spacingLeft=4;spacingRight=4;overflow=hidden;rotatable=0;points=[[0,0.5],[1,0.5]];portConstraint=eastwest;whiteSpace=wrap;html=1;" parent="JyBoucRdllpGloIT8rtI-1" vertex="1">
          <mxGeometry y="64" width="200" height="24" as="geometry" />
        </mxCell>
        <mxCell id="JyBoucRdllpGloIT8rtI-33" value="- description : String" style="text;strokeColor=none;fillColor=none;align=left;verticalAlign=bottom;spacingLeft=4;spacingRight=4;overflow=hidden;rotatable=0;points=[[0,0.5],[1,0.5]];portConstraint=eastwest;whiteSpace=wrap;html=1;" parent="JyBoucRdllpGloIT8rtI-1" vertex="1">
          <mxGeometry y="88" width="200" height="24" as="geometry" />
        </mxCell>
        <mxCell id="JyBoucRdllpGloIT8rtI-3" value="" style="line;strokeWidth=1;fillColor=none;align=left;verticalAlign=middle;spacingTop=-1;spacingLeft=3;spacingRight=3;rotatable=0;labelPosition=right;points=[];portConstraint=eastwest;strokeColor=inherit;" parent="JyBoucRdllpGloIT8rtI-1" vertex="1">
          <mxGeometry y="112" width="200" height="8" as="geometry" />
        </mxCell>
        <mxCell id="JyBoucRdllpGloIT8rtI-4" value="+ Client(int, String, String, String)&lt;div&gt;&lt;br&gt;&lt;div&gt;&lt;br&gt;&lt;/div&gt;&lt;/div&gt;" style="text;strokeColor=none;fillColor=none;align=left;verticalAlign=top;spacingLeft=4;spacingRight=4;overflow=hidden;rotatable=0;points=[[0,0.5],[1,0.5]];portConstraint=eastwest;whiteSpace=wrap;html=1;" parent="JyBoucRdllpGloIT8rtI-1" vertex="1">
          <mxGeometry y="120" width="200" height="36" as="geometry" />
        </mxCell>
        <mxCell id="D8bGTqo5iPkGZ_Vwlwev-35" value="&lt;div&gt;&lt;span style=&quot;background-color: rgb(255, 255, 255);&quot;&gt;+ getIdUser() : int&lt;/span&gt;&lt;/div&gt;&lt;div&gt;&lt;span style=&quot;background-color: rgb(255, 255, 255);&quot;&gt;&lt;br&gt;&lt;/span&gt;&lt;/div&gt;" style="text;strokeColor=none;fillColor=none;align=left;verticalAlign=top;spacingLeft=4;spacingRight=4;overflow=hidden;rotatable=0;points=[[0,0.5],[1,0.5]];portConstraint=eastwest;whiteSpace=wrap;html=1;" parent="JyBoucRdllpGloIT8rtI-1" vertex="1">
          <mxGeometry y="156" width="200" height="36" as="geometry" />
        </mxCell>
        <mxCell id="D8bGTqo5iPkGZ_Vwlwev-34" value="&lt;div&gt;&lt;span style=&quot;background-color: rgb(255, 255, 255); color: light-dark(rgb(0, 0, 0), rgb(255, 255, 255));&quot;&gt;+ set&lt;/span&gt;&lt;span style=&quot;color: light-dark(rgb(0, 0, 0), rgb(255, 255, 255));&quot;&gt;IdUser(int) :&lt;/span&gt;&lt;span style=&quot;color: light-dark(rgb(0, 0, 0), rgb(255, 255, 255));&quot;&gt;&amp;nbsp;void&lt;/span&gt;&lt;/div&gt;&lt;div&gt;&lt;span style=&quot;background-color: rgb(255, 255, 255);&quot;&gt;&lt;span style=&quot;color: light-dark(rgb(0, 0, 0), rgb(255, 255, 255));&quot;&gt;&lt;br&gt;&lt;/span&gt;&lt;/span&gt;&lt;/div&gt;" style="text;strokeColor=none;fillColor=none;align=left;verticalAlign=top;spacingLeft=4;spacingRight=4;overflow=hidden;rotatable=0;points=[[0,0.5],[1,0.5]];portConstraint=eastwest;whiteSpace=wrap;html=1;" parent="JyBoucRdllpGloIT8rtI-1" vertex="1">
          <mxGeometry y="192" width="200" height="36" as="geometry" />
        </mxCell>
        <mxCell id="D8bGTqo5iPkGZ_Vwlwev-33" value="&lt;span style=&quot;background-color: rgb(255, 255, 255);&quot;&gt;+ getAddres() : String&lt;/span&gt;" style="text;strokeColor=none;fillColor=none;align=left;verticalAlign=top;spacingLeft=4;spacingRight=4;overflow=hidden;rotatable=0;points=[[0,0.5],[1,0.5]];portConstraint=eastwest;whiteSpace=wrap;html=1;" parent="JyBoucRdllpGloIT8rtI-1" vertex="1">
          <mxGeometry y="228" width="200" height="36" as="geometry" />
        </mxCell>
        <mxCell id="D8bGTqo5iPkGZ_Vwlwev-32" value="&lt;div&gt;&lt;span style=&quot;color: light-dark(rgb(0, 0, 0), rgb(255, 255, 255)); background-color: rgb(255, 255, 255);&quot;&gt;+ setAddres(String) : void&lt;/span&gt;&lt;/div&gt;" style="text;strokeColor=none;fillColor=none;align=left;verticalAlign=top;spacingLeft=4;spacingRight=4;overflow=hidden;rotatable=0;points=[[0,0.5],[1,0.5]];portConstraint=eastwest;whiteSpace=wrap;html=1;" parent="JyBoucRdllpGloIT8rtI-1" vertex="1">
          <mxGeometry y="264" width="200" height="36" as="geometry" />
        </mxCell>
        <mxCell id="D8bGTqo5iPkGZ_Vwlwev-31" value="&lt;span style=&quot;background-color: rgb(255, 255, 255);&quot;&gt;+ getBirthDate() : String&lt;/span&gt;" style="text;strokeColor=none;fillColor=none;align=left;verticalAlign=top;spacingLeft=4;spacingRight=4;overflow=hidden;rotatable=0;points=[[0,0.5],[1,0.5]];portConstraint=eastwest;whiteSpace=wrap;html=1;" parent="JyBoucRdllpGloIT8rtI-1" vertex="1">
          <mxGeometry y="300" width="200" height="36" as="geometry" />
        </mxCell>
        <mxCell id="D8bGTqo5iPkGZ_Vwlwev-30" value="&lt;span style=&quot;color: light-dark(rgb(0, 0, 0), rgb(255, 255, 255));&quot;&gt;+ set&lt;/span&gt;&lt;span style=&quot;color: light-dark(rgb(0, 0, 0), rgb(255, 255, 255));&quot;&gt;BirthDate(String) : void&lt;/span&gt;" style="text;strokeColor=none;fillColor=none;align=left;verticalAlign=top;spacingLeft=4;spacingRight=4;overflow=hidden;rotatable=0;points=[[0,0.5],[1,0.5]];portConstraint=eastwest;whiteSpace=wrap;html=1;" parent="JyBoucRdllpGloIT8rtI-1" vertex="1">
          <mxGeometry y="336" width="200" height="36" as="geometry" />
        </mxCell>
        <mxCell id="D8bGTqo5iPkGZ_Vwlwev-29" value="&lt;span style=&quot;background-color: rgb(255, 255, 255);&quot;&gt;+ getDescription() : String&lt;/span&gt;" style="text;strokeColor=none;fillColor=none;align=left;verticalAlign=top;spacingLeft=4;spacingRight=4;overflow=hidden;rotatable=0;points=[[0,0.5],[1,0.5]];portConstraint=eastwest;whiteSpace=wrap;html=1;" parent="JyBoucRdllpGloIT8rtI-1" vertex="1">
          <mxGeometry y="372" width="200" height="36" as="geometry" />
        </mxCell>
        <mxCell id="D8bGTqo5iPkGZ_Vwlwev-28" value="&lt;span style=&quot;background-color: rgb(255, 255, 255);&quot;&gt;+ setDescription(String) : void&lt;/span&gt;" style="text;strokeColor=none;fillColor=none;align=left;verticalAlign=top;spacingLeft=4;spacingRight=4;overflow=hidden;rotatable=0;points=[[0,0.5],[1,0.5]];portConstraint=eastwest;whiteSpace=wrap;html=1;" parent="JyBoucRdllpGloIT8rtI-1" vertex="1">
          <mxGeometry y="408" width="200" height="36" as="geometry" />
        </mxCell>
        <mxCell id="D8bGTqo5iPkGZ_Vwlwev-27" value="&lt;span style=&quot;background-color: rgb(255, 255, 255);&quot;&gt;+ toString() : String&lt;/span&gt;" style="text;strokeColor=none;fillColor=none;align=left;verticalAlign=top;spacingLeft=4;spacingRight=4;overflow=hidden;rotatable=0;points=[[0,0.5],[1,0.5]];portConstraint=eastwest;whiteSpace=wrap;html=1;" parent="JyBoucRdllpGloIT8rtI-1" vertex="1">
          <mxGeometry y="444" width="200" height="36" as="geometry" />
        </mxCell>
        <mxCell id="NOQlVdFscTQMoMnTkVEd-1" value="&lt;div&gt;&amp;lt;&amp;lt;Java class&amp;gt;&amp;gt;&lt;/div&gt;Category" style="swimlane;fontStyle=1;align=center;verticalAlign=top;childLayout=stackLayout;horizontal=1;startSize=41;horizontalStack=0;resizeParent=1;resizeParentMax=0;resizeLast=0;collapsible=1;marginBottom=0;whiteSpace=wrap;html=1;" parent="1" vertex="1">
          <mxGeometry x="370" y="280" width="200" height="290" as="geometry" />
        </mxCell>
        <mxCell id="NOQlVdFscTQMoMnTkVEd-2" value="- idCategories : int" style="text;strokeColor=none;fillColor=none;align=left;verticalAlign=top;spacingLeft=4;spacingRight=4;overflow=hidden;rotatable=0;points=[[0,0.5],[1,0.5]];portConstraint=eastwest;whiteSpace=wrap;html=1;" parent="NOQlVdFscTQMoMnTkVEd-1" vertex="1">
          <mxGeometry y="41" width="200" height="26" as="geometry" />
        </mxCell>
        <mxCell id="NOQlVdFscTQMoMnTkVEd-5" value="- categoryName: String" style="text;strokeColor=none;fillColor=none;align=left;verticalAlign=top;spacingLeft=4;spacingRight=4;overflow=hidden;rotatable=0;points=[[0,0.5],[1,0.5]];portConstraint=eastwest;whiteSpace=wrap;html=1;" parent="NOQlVdFscTQMoMnTkVEd-1" vertex="1">
          <mxGeometry y="67" width="200" height="26" as="geometry" />
        </mxCell>
        <mxCell id="NOQlVdFscTQMoMnTkVEd-3" value="" style="line;strokeWidth=1;fillColor=none;align=left;verticalAlign=middle;spacingTop=-1;spacingLeft=3;spacingRight=3;rotatable=0;labelPosition=right;points=[];portConstraint=eastwest;strokeColor=inherit;" parent="NOQlVdFscTQMoMnTkVEd-1" vertex="1">
          <mxGeometry y="93" width="200" height="8" as="geometry" />
        </mxCell>
        <mxCell id="NOQlVdFscTQMoMnTkVEd-4" value="+ Category(int, String)" style="text;strokeColor=none;fillColor=none;align=left;verticalAlign=top;spacingLeft=4;spacingRight=4;overflow=hidden;rotatable=0;points=[[0,0.5],[1,0.5]];portConstraint=eastwest;whiteSpace=wrap;html=1;" parent="NOQlVdFscTQMoMnTkVEd-1" vertex="1">
          <mxGeometry y="101" width="200" height="29" as="geometry" />
        </mxCell>
        <mxCell id="0r3SkYY5NkUkZRjsc_sh-50" value="+ getIdCategory() : int" style="text;strokeColor=none;fillColor=none;align=left;verticalAlign=top;spacingLeft=4;spacingRight=4;overflow=hidden;rotatable=0;points=[[0,0.5],[1,0.5]];portConstraint=eastwest;whiteSpace=wrap;html=1;" parent="NOQlVdFscTQMoMnTkVEd-1" vertex="1">
          <mxGeometry y="130" width="200" height="32" as="geometry" />
        </mxCell>
        <mxCell id="NOQlVdFscTQMoMnTkVEd-10" value="+ setIdCategory(int) : void" style="text;strokeColor=none;fillColor=none;align=left;verticalAlign=top;spacingLeft=4;spacingRight=4;overflow=hidden;rotatable=0;points=[[0,0.5],[1,0.5]];portConstraint=eastwest;whiteSpace=wrap;html=1;" parent="NOQlVdFscTQMoMnTkVEd-1" vertex="1">
          <mxGeometry y="162" width="200" height="32" as="geometry" />
        </mxCell>
        <mxCell id="0r3SkYY5NkUkZRjsc_sh-52" value="+ getCategoryName(): int" style="text;strokeColor=none;fillColor=none;align=left;verticalAlign=top;spacingLeft=4;spacingRight=4;overflow=hidden;rotatable=0;points=[[0,0.5],[1,0.5]];portConstraint=eastwest;whiteSpace=wrap;html=1;" parent="NOQlVdFscTQMoMnTkVEd-1" vertex="1">
          <mxGeometry y="194" width="200" height="32" as="geometry" />
        </mxCell>
        <mxCell id="0r3SkYY5NkUkZRjsc_sh-53" value="+setCategoryName(int) : void" style="text;strokeColor=none;fillColor=none;align=left;verticalAlign=top;spacingLeft=4;spacingRight=4;overflow=hidden;rotatable=0;points=[[0,0.5],[1,0.5]];portConstraint=eastwest;whiteSpace=wrap;html=1;" parent="NOQlVdFscTQMoMnTkVEd-1" vertex="1">
          <mxGeometry y="226" width="200" height="32" as="geometry" />
        </mxCell>
        <mxCell id="0r3SkYY5NkUkZRjsc_sh-54" value="+ toString(): String" style="text;strokeColor=none;fillColor=none;align=left;verticalAlign=top;spacingLeft=4;spacingRight=4;overflow=hidden;rotatable=0;points=[[0,0.5],[1,0.5]];portConstraint=eastwest;whiteSpace=wrap;html=1;" parent="NOQlVdFscTQMoMnTkVEd-1" vertex="1">
          <mxGeometry y="258" width="200" height="32" as="geometry" />
        </mxCell>
        <mxCell id="JyBoucRdllpGloIT8rtI-7" value="&amp;lt;&amp;lt;Java class&amp;gt;&amp;gt;&lt;div&gt;Admin&lt;/div&gt;" style="swimlane;fontStyle=1;align=center;verticalAlign=top;childLayout=stackLayout;horizontal=1;startSize=40;horizontalStack=0;resizeParent=1;resizeParentMax=0;resizeLast=0;collapsible=1;marginBottom=0;whiteSpace=wrap;html=1;" parent="1" vertex="1">
          <mxGeometry x="120" y="126" width="160" height="280" as="geometry" />
        </mxCell>
        <mxCell id="JyBoucRdllpGloIT8rtI-8" value="- idUser : int&amp;nbsp;" style="text;strokeColor=none;fillColor=none;align=left;verticalAlign=top;spacingLeft=4;spacingRight=4;overflow=hidden;rotatable=0;points=[[0,0.5],[1,0.5]];portConstraint=eastwest;whiteSpace=wrap;html=1;" parent="JyBoucRdllpGloIT8rtI-7" vertex="1">
          <mxGeometry y="40" width="160" height="26" as="geometry" />
        </mxCell>
        <mxCell id="JyBoucRdllpGloIT8rtI-11" value="- permLevel : int" style="text;strokeColor=none;fillColor=none;align=left;verticalAlign=top;spacingLeft=4;spacingRight=4;overflow=hidden;rotatable=0;points=[[0,0.5],[1,0.5]];portConstraint=eastwest;whiteSpace=wrap;html=1;" parent="JyBoucRdllpGloIT8rtI-7" vertex="1">
          <mxGeometry y="66" width="160" height="26" as="geometry" />
        </mxCell>
        <mxCell id="JyBoucRdllpGloIT8rtI-9" value="" style="line;strokeWidth=1;fillColor=none;align=left;verticalAlign=middle;spacingTop=-1;spacingLeft=3;spacingRight=3;rotatable=0;labelPosition=right;points=[];portConstraint=eastwest;strokeColor=inherit;" parent="JyBoucRdllpGloIT8rtI-7" vertex="1">
          <mxGeometry y="92" width="160" height="8" as="geometry" />
        </mxCell>
        <mxCell id="JyBoucRdllpGloIT8rtI-10" value="+ Admin(int, int)&lt;div&gt;&lt;div&gt;&lt;br&gt;&lt;/div&gt;&lt;/div&gt;" style="text;strokeColor=none;fillColor=none;align=left;verticalAlign=top;spacingLeft=4;spacingRight=4;overflow=hidden;rotatable=0;points=[[0,0.5],[1,0.5]];portConstraint=eastwest;whiteSpace=wrap;html=1;" parent="JyBoucRdllpGloIT8rtI-7" vertex="1">
          <mxGeometry y="100" width="160" height="30" as="geometry" />
        </mxCell>
        <mxCell id="D8bGTqo5iPkGZ_Vwlwev-25" value="&lt;span style=&quot;background-color: rgb(255, 255, 255);&quot;&gt;+ getIdUser() : int&lt;/span&gt;" style="text;strokeColor=none;fillColor=none;align=left;verticalAlign=top;spacingLeft=4;spacingRight=4;overflow=hidden;rotatable=0;points=[[0,0.5],[1,0.5]];portConstraint=eastwest;whiteSpace=wrap;html=1;" parent="JyBoucRdllpGloIT8rtI-7" vertex="1">
          <mxGeometry y="130" width="160" height="30" as="geometry" />
        </mxCell>
        <mxCell id="D8bGTqo5iPkGZ_Vwlwev-24" value="&lt;span style=&quot;background-color: rgb(255, 255, 255);&quot;&gt;+ setIdUser(int) : void&lt;/span&gt;" style="text;strokeColor=none;fillColor=none;align=left;verticalAlign=top;spacingLeft=4;spacingRight=4;overflow=hidden;rotatable=0;points=[[0,0.5],[1,0.5]];portConstraint=eastwest;whiteSpace=wrap;html=1;" parent="JyBoucRdllpGloIT8rtI-7" vertex="1">
          <mxGeometry y="160" width="160" height="30" as="geometry" />
        </mxCell>
        <mxCell id="D8bGTqo5iPkGZ_Vwlwev-23" value="&lt;span style=&quot;background-color: rgb(255, 255, 255);&quot;&gt;+ getPermLevel() : int&lt;/span&gt;" style="text;strokeColor=none;fillColor=none;align=left;verticalAlign=top;spacingLeft=4;spacingRight=4;overflow=hidden;rotatable=0;points=[[0,0.5],[1,0.5]];portConstraint=eastwest;whiteSpace=wrap;html=1;" parent="JyBoucRdllpGloIT8rtI-7" vertex="1">
          <mxGeometry y="190" width="160" height="30" as="geometry" />
        </mxCell>
        <mxCell id="D8bGTqo5iPkGZ_Vwlwev-22" value="&lt;div&gt;&lt;span style=&quot;background-color: rgb(255, 255, 255); color: light-dark(rgb(0, 0, 0), rgb(255, 255, 255));&quot;&gt;+ setPermLevel(int) : void&lt;/span&gt;&lt;/div&gt;&lt;div&gt;&lt;span style=&quot;background-color: rgb(255, 255, 255);&quot;&gt;&lt;br&gt;&lt;/span&gt;&lt;/div&gt;" style="text;strokeColor=none;fillColor=none;align=left;verticalAlign=top;spacingLeft=4;spacingRight=4;overflow=hidden;rotatable=0;points=[[0,0.5],[1,0.5]];portConstraint=eastwest;whiteSpace=wrap;html=1;" parent="JyBoucRdllpGloIT8rtI-7" vertex="1">
          <mxGeometry y="220" width="160" height="30" as="geometry" />
        </mxCell>
        <mxCell id="D8bGTqo5iPkGZ_Vwlwev-21" value="&lt;span style=&quot;background-color: rgb(255, 255, 255);&quot;&gt;+ toString() : String&lt;/span&gt;" style="text;strokeColor=none;fillColor=none;align=left;verticalAlign=top;spacingLeft=4;spacingRight=4;overflow=hidden;rotatable=0;points=[[0,0.5],[1,0.5]];portConstraint=eastwest;whiteSpace=wrap;html=1;" parent="JyBoucRdllpGloIT8rtI-7" vertex="1">
          <mxGeometry y="250" width="160" height="30" as="geometry" />
        </mxCell>
        <mxCell id="NOQlVdFscTQMoMnTkVEd-14" value="&lt;div&gt;&amp;lt;&amp;lt;Java class&amp;gt;&amp;gt;&lt;/div&gt;Stay" style="swimlane;fontStyle=1;align=center;verticalAlign=top;childLayout=stackLayout;horizontal=1;startSize=43;horizontalStack=0;resizeParent=1;resizeParentMax=0;resizeLast=0;collapsible=1;marginBottom=0;whiteSpace=wrap;html=1;" parent="1" vertex="1">
          <mxGeometry x="660" y="210" width="460" height="1117" as="geometry" />
        </mxCell>
        <mxCell id="NOQlVdFscTQMoMnTkVEd-15" value="- idStay: int" style="text;strokeColor=none;fillColor=none;align=left;verticalAlign=top;spacingLeft=4;spacingRight=4;overflow=hidden;rotatable=0;points=[[0,0.5],[1,0.5]];portConstraint=eastwest;whiteSpace=wrap;html=1;" parent="NOQlVdFscTQMoMnTkVEd-14" vertex="1">
          <mxGeometry y="43" width="460" height="26" as="geometry" />
        </mxCell>
        <mxCell id="NOQlVdFscTQMoMnTkVEd-16" value="- titlename: String" style="text;strokeColor=none;fillColor=none;align=left;verticalAlign=top;spacingLeft=4;spacingRight=4;overflow=hidden;rotatable=0;points=[[0,0.5],[1,0.5]];portConstraint=eastwest;whiteSpace=wrap;html=1;" parent="NOQlVdFscTQMoMnTkVEd-14" vertex="1">
          <mxGeometry y="69" width="460" height="26" as="geometry" />
        </mxCell>
        <mxCell id="NOQlVdFscTQMoMnTkVEd-17" value="- description: String" style="text;strokeColor=none;fillColor=none;align=left;verticalAlign=top;spacingLeft=4;spacingRight=4;overflow=hidden;rotatable=0;points=[[0,0.5],[1,0.5]];portConstraint=eastwest;whiteSpace=wrap;html=1;" parent="NOQlVdFscTQMoMnTkVEd-14" vertex="1">
          <mxGeometry y="95" width="460" height="26" as="geometry" />
        </mxCell>
        <mxCell id="NOQlVdFscTQMoMnTkVEd-18" value="- price: float" style="text;strokeColor=none;fillColor=none;align=left;verticalAlign=top;spacingLeft=4;spacingRight=4;overflow=hidden;rotatable=0;points=[[0,0.5],[1,0.5]];portConstraint=eastwest;whiteSpace=wrap;html=1;" parent="NOQlVdFscTQMoMnTkVEd-14" vertex="1">
          <mxGeometry y="121" width="460" height="26" as="geometry" />
        </mxCell>
        <mxCell id="g5tavuga0tHeyg05Biz0-4" value="- images: List&amp;lt;String&amp;gt;" style="text;strokeColor=none;fillColor=none;align=left;verticalAlign=top;spacingLeft=4;spacingRight=4;overflow=hidden;rotatable=0;points=[[0,0.5],[1,0.5]];portConstraint=eastwest;whiteSpace=wrap;html=1;" parent="NOQlVdFscTQMoMnTkVEd-14" vertex="1">
          <mxGeometry y="147" width="460" height="26" as="geometry" />
        </mxCell>
        <mxCell id="g5tavuga0tHeyg05Biz0-5" value="- features: List&amp;lt;Feature&amp;gt;" style="text;strokeColor=none;fillColor=none;align=left;verticalAlign=top;spacingLeft=4;spacingRight=4;overflow=hidden;rotatable=0;points=[[0,0.5],[1,0.5]];portConstraint=eastwest;whiteSpace=wrap;html=1;" parent="NOQlVdFscTQMoMnTkVEd-14" vertex="1">
          <mxGeometry y="173" width="460" height="26" as="geometry" />
        </mxCell>
        <mxCell id="NOQlVdFscTQMoMnTkVEd-19" value="- active: boolean" style="text;strokeColor=none;fillColor=none;align=left;verticalAlign=top;spacingLeft=4;spacingRight=4;overflow=hidden;rotatable=0;points=[[0,0.5],[1,0.5]];portConstraint=eastwest;whiteSpace=wrap;html=1;" parent="NOQlVdFscTQMoMnTkVEd-14" vertex="1">
          <mxGeometry y="199" width="460" height="26" as="geometry" />
        </mxCell>
        <mxCell id="NOQlVdFscTQMoMnTkVEd-22" value="- categorie: Categorie" style="text;strokeColor=none;fillColor=none;align=left;verticalAlign=top;spacingLeft=4;spacingRight=4;overflow=hidden;rotatable=0;points=[[0,0.5],[1,0.5]];portConstraint=eastwest;whiteSpace=wrap;html=1;" parent="NOQlVdFscTQMoMnTkVEd-14" vertex="1">
          <mxGeometry y="225" width="460" height="26" as="geometry" />
        </mxCell>
        <mxCell id="0r3SkYY5NkUkZRjsc_sh-2" value="- numGuests: int" style="text;strokeColor=none;fillColor=none;align=left;verticalAlign=top;spacingLeft=4;spacingRight=4;overflow=hidden;rotatable=0;points=[[0,0.5],[1,0.5]];portConstraint=eastwest;whiteSpace=wrap;html=1;" parent="NOQlVdFscTQMoMnTkVEd-14" vertex="1">
          <mxGeometry y="251" width="460" height="26" as="geometry" />
        </mxCell>
        <mxCell id="0r3SkYY5NkUkZRjsc_sh-3" value="- numBaths: int" style="text;strokeColor=none;fillColor=none;align=left;verticalAlign=top;spacingLeft=4;spacingRight=4;overflow=hidden;rotatable=0;points=[[0,0.5],[1,0.5]];portConstraint=eastwest;whiteSpace=wrap;html=1;" parent="NOQlVdFscTQMoMnTkVEd-14" vertex="1">
          <mxGeometry y="277" width="460" height="26" as="geometry" />
        </mxCell>
        <mxCell id="0r3SkYY5NkUkZRjsc_sh-4" value="- numBeds: int" style="text;strokeColor=none;fillColor=none;align=left;verticalAlign=top;spacingLeft=4;spacingRight=4;overflow=hidden;rotatable=0;points=[[0,0.5],[1,0.5]];portConstraint=eastwest;whiteSpace=wrap;html=1;" parent="NOQlVdFscTQMoMnTkVEd-14" vertex="1">
          <mxGeometry y="303" width="460" height="26" as="geometry" />
        </mxCell>
        <mxCell id="0r3SkYY5NkUkZRjsc_sh-5" value="- numBedrooms: int" style="text;strokeColor=none;fillColor=none;align=left;verticalAlign=top;spacingLeft=4;spacingRight=4;overflow=hidden;rotatable=0;points=[[0,0.5],[1,0.5]];portConstraint=eastwest;whiteSpace=wrap;html=1;" parent="NOQlVdFscTQMoMnTkVEd-14" vertex="1">
          <mxGeometry y="329" width="460" height="26" as="geometry" />
        </mxCell>
        <mxCell id="0r3SkYY5NkUkZRjsc_sh-6" value="- locationAddress: String" style="text;strokeColor=none;fillColor=none;align=left;verticalAlign=top;spacingLeft=4;spacingRight=4;overflow=hidden;rotatable=0;points=[[0,0.5],[1,0.5]];portConstraint=eastwest;whiteSpace=wrap;html=1;" parent="NOQlVdFscTQMoMnTkVEd-14" vertex="1">
          <mxGeometry y="355" width="460" height="26" as="geometry" />
        </mxCell>
        <mxCell id="NOQlVdFscTQMoMnTkVEd-20" value="" style="line;strokeWidth=1;fillColor=none;align=left;verticalAlign=middle;spacingTop=-1;spacingLeft=3;spacingRight=3;rotatable=0;labelPosition=right;points=[];portConstraint=eastwest;strokeColor=inherit;" parent="NOQlVdFscTQMoMnTkVEd-14" vertex="1">
          <mxGeometry y="381" width="460" height="8" as="geometry" />
        </mxCell>
        <mxCell id="0r3SkYY5NkUkZRjsc_sh-37" value="+ Stay (int, String, String, String, float, boolean, Categorie, int, int, int, int, String)" style="text;strokeColor=none;fillColor=none;align=left;verticalAlign=top;spacingLeft=4;spacingRight=4;overflow=hidden;rotatable=0;points=[[0,0.5],[1,0.5]];portConstraint=eastwest;whiteSpace=wrap;html=1;" parent="NOQlVdFscTQMoMnTkVEd-14" vertex="1">
          <mxGeometry y="389" width="460" height="26" as="geometry" />
        </mxCell>
        <mxCell id="0r3SkYY5NkUkZRjsc_sh-9" value="+ getIdStay(): int" style="text;strokeColor=none;fillColor=none;align=left;verticalAlign=top;spacingLeft=4;spacingRight=4;overflow=hidden;rotatable=0;points=[[0,0.5],[1,0.5]];portConstraint=eastwest;whiteSpace=wrap;html=1;" parent="NOQlVdFscTQMoMnTkVEd-14" vertex="1">
          <mxGeometry y="415" width="460" height="26" as="geometry" />
        </mxCell>
        <mxCell id="0r3SkYY5NkUkZRjsc_sh-10" value="+ setIdStay(int): void" style="text;strokeColor=none;fillColor=none;align=left;verticalAlign=top;spacingLeft=4;spacingRight=4;overflow=hidden;rotatable=0;points=[[0,0.5],[1,0.5]];portConstraint=eastwest;whiteSpace=wrap;html=1;" parent="NOQlVdFscTQMoMnTkVEd-14" vertex="1">
          <mxGeometry y="441" width="460" height="26" as="geometry" />
        </mxCell>
        <mxCell id="0r3SkYY5NkUkZRjsc_sh-11" value="+ getTitlename(): String" style="text;strokeColor=none;fillColor=none;align=left;verticalAlign=top;spacingLeft=4;spacingRight=4;overflow=hidden;rotatable=0;points=[[0,0.5],[1,0.5]];portConstraint=eastwest;whiteSpace=wrap;html=1;" parent="NOQlVdFscTQMoMnTkVEd-14" vertex="1">
          <mxGeometry y="467" width="460" height="26" as="geometry" />
        </mxCell>
        <mxCell id="0r3SkYY5NkUkZRjsc_sh-12" value="+ setTitlename(String): void" style="text;strokeColor=none;fillColor=none;align=left;verticalAlign=top;spacingLeft=4;spacingRight=4;overflow=hidden;rotatable=0;points=[[0,0.5],[1,0.5]];portConstraint=eastwest;whiteSpace=wrap;html=1;" parent="NOQlVdFscTQMoMnTkVEd-14" vertex="1">
          <mxGeometry y="493" width="460" height="26" as="geometry" />
        </mxCell>
        <mxCell id="0r3SkYY5NkUkZRjsc_sh-13" value="+ getDescription(): String" style="text;strokeColor=none;fillColor=none;align=left;verticalAlign=top;spacingLeft=4;spacingRight=4;overflow=hidden;rotatable=0;points=[[0,0.5],[1,0.5]];portConstraint=eastwest;whiteSpace=wrap;html=1;" parent="NOQlVdFscTQMoMnTkVEd-14" vertex="1">
          <mxGeometry y="519" width="460" height="26" as="geometry" />
        </mxCell>
        <mxCell id="0r3SkYY5NkUkZRjsc_sh-14" value="+ setDescription(String): void" style="text;strokeColor=none;fillColor=none;align=left;verticalAlign=top;spacingLeft=4;spacingRight=4;overflow=hidden;rotatable=0;points=[[0,0.5],[1,0.5]];portConstraint=eastwest;whiteSpace=wrap;html=1;" parent="NOQlVdFscTQMoMnTkVEd-14" vertex="1">
          <mxGeometry y="545" width="460" height="26" as="geometry" />
        </mxCell>
        <mxCell id="0r3SkYY5NkUkZRjsc_sh-15" value="+ getPrice(): float" style="text;strokeColor=none;fillColor=none;align=left;verticalAlign=top;spacingLeft=4;spacingRight=4;overflow=hidden;rotatable=0;points=[[0,0.5],[1,0.5]];portConstraint=eastwest;whiteSpace=wrap;html=1;" parent="NOQlVdFscTQMoMnTkVEd-14" vertex="1">
          <mxGeometry y="571" width="460" height="26" as="geometry" />
        </mxCell>
        <mxCell id="0r3SkYY5NkUkZRjsc_sh-16" value="+ setPrice(float): void" style="text;strokeColor=none;fillColor=none;align=left;verticalAlign=top;spacingLeft=4;spacingRight=4;overflow=hidden;rotatable=0;points=[[0,0.5],[1,0.5]];portConstraint=eastwest;whiteSpace=wrap;html=1;" parent="NOQlVdFscTQMoMnTkVEd-14" vertex="1">
          <mxGeometry y="597" width="460" height="26" as="geometry" />
        </mxCell>
        <mxCell id="0r3SkYY5NkUkZRjsc_sh-17" value="+ getImages(): List&amp;lt;String&amp;gt;" style="text;strokeColor=none;fillColor=none;align=left;verticalAlign=top;spacingLeft=4;spacingRight=4;overflow=hidden;rotatable=0;points=[[0,0.5],[1,0.5]];portConstraint=eastwest;whiteSpace=wrap;html=1;" parent="NOQlVdFscTQMoMnTkVEd-14" vertex="1">
          <mxGeometry y="623" width="460" height="26" as="geometry" />
        </mxCell>
        <mxCell id="0r3SkYY5NkUkZRjsc_sh-18" value="+ setImages(List&amp;lt;String&amp;gt;): void" style="text;strokeColor=none;fillColor=none;align=left;verticalAlign=top;spacingLeft=4;spacingRight=4;overflow=hidden;rotatable=0;points=[[0,0.5],[1,0.5]];portConstraint=eastwest;whiteSpace=wrap;html=1;" parent="NOQlVdFscTQMoMnTkVEd-14" vertex="1">
          <mxGeometry y="649" width="460" height="26" as="geometry" />
        </mxCell>
        <mxCell id="0r3SkYY5NkUkZRjsc_sh-19" value="+ getFeatures(): List&amp;lt;Feature&amp;gt;" style="text;strokeColor=none;fillColor=none;align=left;verticalAlign=top;spacingLeft=4;spacingRight=4;overflow=hidden;rotatable=0;points=[[0,0.5],[1,0.5]];portConstraint=eastwest;whiteSpace=wrap;html=1;" parent="NOQlVdFscTQMoMnTkVEd-14" vertex="1">
          <mxGeometry y="675" width="460" height="26" as="geometry" />
        </mxCell>
        <mxCell id="0r3SkYY5NkUkZRjsc_sh-20" value="+ setFeatures(List&amp;lt;Feature&amp;gt;): void" style="text;strokeColor=none;fillColor=none;align=left;verticalAlign=top;spacingLeft=4;spacingRight=4;overflow=hidden;rotatable=0;points=[[0,0.5],[1,0.5]];portConstraint=eastwest;whiteSpace=wrap;html=1;" parent="NOQlVdFscTQMoMnTkVEd-14" vertex="1">
          <mxGeometry y="701" width="460" height="26" as="geometry" />
        </mxCell>
        <mxCell id="0r3SkYY5NkUkZRjsc_sh-21" value="+ getActive(): boolean" style="text;strokeColor=none;fillColor=none;align=left;verticalAlign=top;spacingLeft=4;spacingRight=4;overflow=hidden;rotatable=0;points=[[0,0.5],[1,0.5]];portConstraint=eastwest;whiteSpace=wrap;html=1;" parent="NOQlVdFscTQMoMnTkVEd-14" vertex="1">
          <mxGeometry y="727" width="460" height="26" as="geometry" />
        </mxCell>
        <mxCell id="0r3SkYY5NkUkZRjsc_sh-22" value="+ setActive(boolean): void" style="text;strokeColor=none;fillColor=none;align=left;verticalAlign=top;spacingLeft=4;spacingRight=4;overflow=hidden;rotatable=0;points=[[0,0.5],[1,0.5]];portConstraint=eastwest;whiteSpace=wrap;html=1;" parent="NOQlVdFscTQMoMnTkVEd-14" vertex="1">
          <mxGeometry y="753" width="460" height="26" as="geometry" />
        </mxCell>
        <mxCell id="0r3SkYY5NkUkZRjsc_sh-23" value="+ getCategory(): Category" style="text;strokeColor=none;fillColor=none;align=left;verticalAlign=top;spacingLeft=4;spacingRight=4;overflow=hidden;rotatable=0;points=[[0,0.5],[1,0.5]];portConstraint=eastwest;whiteSpace=wrap;html=1;" parent="NOQlVdFscTQMoMnTkVEd-14" vertex="1">
          <mxGeometry y="779" width="460" height="26" as="geometry" />
        </mxCell>
        <mxCell id="0r3SkYY5NkUkZRjsc_sh-24" value="+ setCategory(Category): void" style="text;strokeColor=none;fillColor=none;align=left;verticalAlign=top;spacingLeft=4;spacingRight=4;overflow=hidden;rotatable=0;points=[[0,0.5],[1,0.5]];portConstraint=eastwest;whiteSpace=wrap;html=1;" parent="NOQlVdFscTQMoMnTkVEd-14" vertex="1">
          <mxGeometry y="805" width="460" height="26" as="geometry" />
        </mxCell>
        <mxCell id="0r3SkYY5NkUkZRjsc_sh-25" value="+ getNumGuests(): int" style="text;strokeColor=none;fillColor=none;align=left;verticalAlign=top;spacingLeft=4;spacingRight=4;overflow=hidden;rotatable=0;points=[[0,0.5],[1,0.5]];portConstraint=eastwest;whiteSpace=wrap;html=1;" parent="NOQlVdFscTQMoMnTkVEd-14" vertex="1">
          <mxGeometry y="831" width="460" height="26" as="geometry" />
        </mxCell>
        <mxCell id="0r3SkYY5NkUkZRjsc_sh-26" value="+ setNumGuests(int): void" style="text;strokeColor=none;fillColor=none;align=left;verticalAlign=top;spacingLeft=4;spacingRight=4;overflow=hidden;rotatable=0;points=[[0,0.5],[1,0.5]];portConstraint=eastwest;whiteSpace=wrap;html=1;" parent="NOQlVdFscTQMoMnTkVEd-14" vertex="1">
          <mxGeometry y="857" width="460" height="26" as="geometry" />
        </mxCell>
        <mxCell id="0r3SkYY5NkUkZRjsc_sh-27" value="+ getNumBaths(): int" style="text;strokeColor=none;fillColor=none;align=left;verticalAlign=top;spacingLeft=4;spacingRight=4;overflow=hidden;rotatable=0;points=[[0,0.5],[1,0.5]];portConstraint=eastwest;whiteSpace=wrap;html=1;" parent="NOQlVdFscTQMoMnTkVEd-14" vertex="1">
          <mxGeometry y="883" width="460" height="26" as="geometry" />
        </mxCell>
        <mxCell id="0r3SkYY5NkUkZRjsc_sh-28" value="+ setNumBaths(int): void" style="text;strokeColor=none;fillColor=none;align=left;verticalAlign=top;spacingLeft=4;spacingRight=4;overflow=hidden;rotatable=0;points=[[0,0.5],[1,0.5]];portConstraint=eastwest;whiteSpace=wrap;html=1;" parent="NOQlVdFscTQMoMnTkVEd-14" vertex="1">
          <mxGeometry y="909" width="460" height="26" as="geometry" />
        </mxCell>
        <mxCell id="0r3SkYY5NkUkZRjsc_sh-29" value="+ getNumBeds(): int" style="text;strokeColor=none;fillColor=none;align=left;verticalAlign=top;spacingLeft=4;spacingRight=4;overflow=hidden;rotatable=0;points=[[0,0.5],[1,0.5]];portConstraint=eastwest;whiteSpace=wrap;html=1;" parent="NOQlVdFscTQMoMnTkVEd-14" vertex="1">
          <mxGeometry y="935" width="460" height="26" as="geometry" />
        </mxCell>
        <mxCell id="0r3SkYY5NkUkZRjsc_sh-30" value="+ setNumBeds(int): void" style="text;strokeColor=none;fillColor=none;align=left;verticalAlign=top;spacingLeft=4;spacingRight=4;overflow=hidden;rotatable=0;points=[[0,0.5],[1,0.5]];portConstraint=eastwest;whiteSpace=wrap;html=1;" parent="NOQlVdFscTQMoMnTkVEd-14" vertex="1">
          <mxGeometry y="961" width="460" height="26" as="geometry" />
        </mxCell>
        <mxCell id="0r3SkYY5NkUkZRjsc_sh-31" value="+ getNumBedrooms(): int" style="text;strokeColor=none;fillColor=none;align=left;verticalAlign=top;spacingLeft=4;spacingRight=4;overflow=hidden;rotatable=0;points=[[0,0.5],[1,0.5]];portConstraint=eastwest;whiteSpace=wrap;html=1;" parent="NOQlVdFscTQMoMnTkVEd-14" vertex="1">
          <mxGeometry y="987" width="460" height="26" as="geometry" />
        </mxCell>
        <mxCell id="0r3SkYY5NkUkZRjsc_sh-32" value="+ setNumBedrooms(int): void" style="text;strokeColor=none;fillColor=none;align=left;verticalAlign=top;spacingLeft=4;spacingRight=4;overflow=hidden;rotatable=0;points=[[0,0.5],[1,0.5]];portConstraint=eastwest;whiteSpace=wrap;html=1;" parent="NOQlVdFscTQMoMnTkVEd-14" vertex="1">
          <mxGeometry y="1013" width="460" height="26" as="geometry" />
        </mxCell>
        <mxCell id="0r3SkYY5NkUkZRjsc_sh-33" value="+ getLocationAdress(): String" style="text;strokeColor=none;fillColor=none;align=left;verticalAlign=top;spacingLeft=4;spacingRight=4;overflow=hidden;rotatable=0;points=[[0,0.5],[1,0.5]];portConstraint=eastwest;whiteSpace=wrap;html=1;" parent="NOQlVdFscTQMoMnTkVEd-14" vertex="1">
          <mxGeometry y="1039" width="460" height="26" as="geometry" />
        </mxCell>
        <mxCell id="0r3SkYY5NkUkZRjsc_sh-34" value="+ setLocationAdress(String): void" style="text;strokeColor=none;fillColor=none;align=left;verticalAlign=top;spacingLeft=4;spacingRight=4;overflow=hidden;rotatable=0;points=[[0,0.5],[1,0.5]];portConstraint=eastwest;whiteSpace=wrap;html=1;" parent="NOQlVdFscTQMoMnTkVEd-14" vertex="1">
          <mxGeometry y="1065" width="460" height="26" as="geometry" />
        </mxCell>
        <mxCell id="0r3SkYY5NkUkZRjsc_sh-35" value="+ toString(): String" style="text;strokeColor=none;fillColor=none;align=left;verticalAlign=top;spacingLeft=4;spacingRight=4;overflow=hidden;rotatable=0;points=[[0,0.5],[1,0.5]];portConstraint=eastwest;whiteSpace=wrap;html=1;" parent="NOQlVdFscTQMoMnTkVEd-14" vertex="1">
          <mxGeometry y="1091" width="460" height="26" as="geometry" />
        </mxCell>
        <mxCell id="JyBoucRdllpGloIT8rtI-12" value="&amp;lt;&amp;lt;Java abstract class&amp;gt;&amp;gt;&lt;div&gt;&lt;i&gt;User&lt;/i&gt;&lt;/div&gt;" style="swimlane;fontStyle=1;align=center;verticalAlign=top;childLayout=stackLayout;horizontal=1;startSize=40;horizontalStack=0;resizeParent=1;resizeParentMax=0;resizeLast=0;collapsible=1;marginBottom=0;whiteSpace=wrap;html=1;" parent="1" vertex="1">
          <mxGeometry x="430" y="-580" width="350" height="724" as="geometry" />
        </mxCell>
        <mxCell id="JyBoucRdllpGloIT8rtI-13" value="- idUser : int" style="text;strokeColor=none;fillColor=none;align=left;verticalAlign=top;spacingLeft=4;spacingRight=4;overflow=hidden;rotatable=0;points=[[0,0.5],[1,0.5]];portConstraint=eastwest;whiteSpace=wrap;html=1;" parent="JyBoucRdllpGloIT8rtI-12" vertex="1">
          <mxGeometry y="40" width="350" height="26" as="geometry" />
        </mxCell>
        <mxCell id="JyBoucRdllpGloIT8rtI-19" value="- name : String" style="text;strokeColor=none;fillColor=none;align=left;verticalAlign=top;spacingLeft=4;spacingRight=4;overflow=hidden;rotatable=0;points=[[0,0.5],[1,0.5]];portConstraint=eastwest;whiteSpace=wrap;html=1;" parent="JyBoucRdllpGloIT8rtI-12" vertex="1">
          <mxGeometry y="66" width="350" height="26" as="geometry" />
        </mxCell>
        <mxCell id="JyBoucRdllpGloIT8rtI-18" value="- surname : String" style="text;strokeColor=none;fillColor=none;align=left;verticalAlign=top;spacingLeft=4;spacingRight=4;overflow=hidden;rotatable=0;points=[[0,0.5],[1,0.5]];portConstraint=eastwest;whiteSpace=wrap;html=1;" parent="JyBoucRdllpGloIT8rtI-12" vertex="1">
          <mxGeometry y="92" width="350" height="26" as="geometry" />
        </mxCell>
        <mxCell id="JyBoucRdllpGloIT8rtI-17" value="- email : String&amp;nbsp;" style="text;strokeColor=none;fillColor=none;align=left;verticalAlign=top;spacingLeft=4;spacingRight=4;overflow=hidden;rotatable=0;points=[[0,0.5],[1,0.5]];portConstraint=eastwest;whiteSpace=wrap;html=1;" parent="JyBoucRdllpGloIT8rtI-12" vertex="1">
          <mxGeometry y="118" width="350" height="26" as="geometry" />
        </mxCell>
        <mxCell id="JyBoucRdllpGloIT8rtI-16" value="- phone : String" style="text;strokeColor=none;fillColor=none;align=left;verticalAlign=top;spacingLeft=4;spacingRight=4;overflow=hidden;rotatable=0;points=[[0,0.5],[1,0.5]];portConstraint=eastwest;whiteSpace=wrap;html=1;" parent="JyBoucRdllpGloIT8rtI-12" vertex="1">
          <mxGeometry y="144" width="350" height="26" as="geometry" />
        </mxCell>
        <mxCell id="JyBoucRdllpGloIT8rtI-21" value="- username : String" style="text;strokeColor=none;fillColor=none;align=left;verticalAlign=top;spacingLeft=4;spacingRight=4;overflow=hidden;rotatable=0;points=[[0,0.5],[1,0.5]];portConstraint=eastwest;whiteSpace=wrap;html=1;" parent="JyBoucRdllpGloIT8rtI-12" vertex="1">
          <mxGeometry y="170" width="350" height="26" as="geometry" />
        </mxCell>
        <mxCell id="JyBoucRdllpGloIT8rtI-20" value="- password : String" style="text;strokeColor=none;fillColor=none;align=left;verticalAlign=top;spacingLeft=4;spacingRight=4;overflow=hidden;rotatable=0;points=[[0,0.5],[1,0.5]];portConstraint=eastwest;whiteSpace=wrap;html=1;" parent="JyBoucRdllpGloIT8rtI-12" vertex="1">
          <mxGeometry y="196" width="350" height="26" as="geometry" />
        </mxCell>
        <mxCell id="JyBoucRdllpGloIT8rtI-32" value="- dni : String" style="text;strokeColor=none;fillColor=none;align=left;verticalAlign=top;spacingLeft=4;spacingRight=4;overflow=hidden;rotatable=0;points=[[0,0.5],[1,0.5]];portConstraint=eastwest;whiteSpace=wrap;html=1;" parent="JyBoucRdllpGloIT8rtI-12" vertex="1">
          <mxGeometry y="222" width="350" height="26" as="geometry" />
        </mxCell>
        <mxCell id="JyBoucRdllpGloIT8rtI-14" value="" style="line;strokeWidth=1;fillColor=none;align=left;verticalAlign=middle;spacingTop=-1;spacingLeft=3;spacingRight=3;rotatable=0;labelPosition=right;points=[];portConstraint=eastwest;strokeColor=inherit;" parent="JyBoucRdllpGloIT8rtI-12" vertex="1">
          <mxGeometry y="248" width="350" height="8" as="geometry" />
        </mxCell>
        <mxCell id="JyBoucRdllpGloIT8rtI-15" value="+ User(int, String, String, String, String, String, String, String)" style="text;strokeColor=none;fillColor=none;align=left;verticalAlign=top;spacingLeft=4;spacingRight=4;overflow=hidden;rotatable=0;points=[[0,0.5],[1,0.5]];portConstraint=eastwest;whiteSpace=wrap;html=1;" parent="JyBoucRdllpGloIT8rtI-12" vertex="1">
          <mxGeometry y="256" width="350" height="26" as="geometry" />
        </mxCell>
        <mxCell id="g5tavuga0tHeyg05Biz0-24" value="+ getIdUser() : int" style="text;strokeColor=none;fillColor=none;align=left;verticalAlign=top;spacingLeft=4;spacingRight=4;overflow=hidden;rotatable=0;points=[[0,0.5],[1,0.5]];portConstraint=eastwest;whiteSpace=wrap;html=1;" parent="JyBoucRdllpGloIT8rtI-12" vertex="1">
          <mxGeometry y="282" width="350" height="26" as="geometry" />
        </mxCell>
        <mxCell id="g5tavuga0tHeyg05Biz0-23" value="+ setIdUser(int) : void" style="text;strokeColor=none;fillColor=none;align=left;verticalAlign=top;spacingLeft=4;spacingRight=4;overflow=hidden;rotatable=0;points=[[0,0.5],[1,0.5]];portConstraint=eastwest;whiteSpace=wrap;html=1;" parent="JyBoucRdllpGloIT8rtI-12" vertex="1">
          <mxGeometry y="308" width="350" height="26" as="geometry" />
        </mxCell>
        <mxCell id="g5tavuga0tHeyg05Biz0-22" value="+ getName() : String" style="text;strokeColor=none;fillColor=none;align=left;verticalAlign=top;spacingLeft=4;spacingRight=4;overflow=hidden;rotatable=0;points=[[0,0.5],[1,0.5]];portConstraint=eastwest;whiteSpace=wrap;html=1;" parent="JyBoucRdllpGloIT8rtI-12" vertex="1">
          <mxGeometry y="334" width="350" height="26" as="geometry" />
        </mxCell>
        <mxCell id="g5tavuga0tHeyg05Biz0-21" value="+ setName(String) : void" style="text;strokeColor=none;fillColor=none;align=left;verticalAlign=top;spacingLeft=4;spacingRight=4;overflow=hidden;rotatable=0;points=[[0,0.5],[1,0.5]];portConstraint=eastwest;whiteSpace=wrap;html=1;" parent="JyBoucRdllpGloIT8rtI-12" vertex="1">
          <mxGeometry y="360" width="350" height="26" as="geometry" />
        </mxCell>
        <mxCell id="g5tavuga0tHeyg05Biz0-20" value="+ getSurname() : String&amp;nbsp;" style="text;strokeColor=none;fillColor=none;align=left;verticalAlign=top;spacingLeft=4;spacingRight=4;overflow=hidden;rotatable=0;points=[[0,0.5],[1,0.5]];portConstraint=eastwest;whiteSpace=wrap;html=1;" parent="JyBoucRdllpGloIT8rtI-12" vertex="1">
          <mxGeometry y="386" width="350" height="26" as="geometry" />
        </mxCell>
        <mxCell id="g5tavuga0tHeyg05Biz0-19" value="+ setSurname(String) : void" style="text;strokeColor=none;fillColor=none;align=left;verticalAlign=top;spacingLeft=4;spacingRight=4;overflow=hidden;rotatable=0;points=[[0,0.5],[1,0.5]];portConstraint=eastwest;whiteSpace=wrap;html=1;" parent="JyBoucRdllpGloIT8rtI-12" vertex="1">
          <mxGeometry y="412" width="350" height="26" as="geometry" />
        </mxCell>
        <mxCell id="g5tavuga0tHeyg05Biz0-18" value="+ getEmail() : String" style="text;strokeColor=none;fillColor=none;align=left;verticalAlign=top;spacingLeft=4;spacingRight=4;overflow=hidden;rotatable=0;points=[[0,0.5],[1,0.5]];portConstraint=eastwest;whiteSpace=wrap;html=1;" parent="JyBoucRdllpGloIT8rtI-12" vertex="1">
          <mxGeometry y="438" width="350" height="26" as="geometry" />
        </mxCell>
        <mxCell id="g5tavuga0tHeyg05Biz0-17" value="+ setEmail(String) : void" style="text;strokeColor=none;fillColor=none;align=left;verticalAlign=top;spacingLeft=4;spacingRight=4;overflow=hidden;rotatable=0;points=[[0,0.5],[1,0.5]];portConstraint=eastwest;whiteSpace=wrap;html=1;" parent="JyBoucRdllpGloIT8rtI-12" vertex="1">
          <mxGeometry y="464" width="350" height="26" as="geometry" />
        </mxCell>
        <mxCell id="g5tavuga0tHeyg05Biz0-16" value="+ getPhone() : String&amp;nbsp;" style="text;strokeColor=none;fillColor=none;align=left;verticalAlign=top;spacingLeft=4;spacingRight=4;overflow=hidden;rotatable=0;points=[[0,0.5],[1,0.5]];portConstraint=eastwest;whiteSpace=wrap;html=1;" parent="JyBoucRdllpGloIT8rtI-12" vertex="1">
          <mxGeometry y="490" width="350" height="26" as="geometry" />
        </mxCell>
        <mxCell id="g5tavuga0tHeyg05Biz0-15" value="+ setPhone(String) : void&amp;nbsp;" style="text;strokeColor=none;fillColor=none;align=left;verticalAlign=top;spacingLeft=4;spacingRight=4;overflow=hidden;rotatable=0;points=[[0,0.5],[1,0.5]];portConstraint=eastwest;whiteSpace=wrap;html=1;" parent="JyBoucRdllpGloIT8rtI-12" vertex="1">
          <mxGeometry y="516" width="350" height="26" as="geometry" />
        </mxCell>
        <mxCell id="g5tavuga0tHeyg05Biz0-14" value="+ getUsername() : String" style="text;strokeColor=none;fillColor=none;align=left;verticalAlign=top;spacingLeft=4;spacingRight=4;overflow=hidden;rotatable=0;points=[[0,0.5],[1,0.5]];portConstraint=eastwest;whiteSpace=wrap;html=1;" parent="JyBoucRdllpGloIT8rtI-12" vertex="1">
          <mxGeometry y="542" width="350" height="26" as="geometry" />
        </mxCell>
        <mxCell id="g5tavuga0tHeyg05Biz0-13" value="+ setUsername(String) : void&amp;nbsp;" style="text;strokeColor=none;fillColor=none;align=left;verticalAlign=top;spacingLeft=4;spacingRight=4;overflow=hidden;rotatable=0;points=[[0,0.5],[1,0.5]];portConstraint=eastwest;whiteSpace=wrap;html=1;" parent="JyBoucRdllpGloIT8rtI-12" vertex="1">
          <mxGeometry y="568" width="350" height="26" as="geometry" />
        </mxCell>
        <mxCell id="g5tavuga0tHeyg05Biz0-12" value="+ getPassword() : String" style="text;strokeColor=none;fillColor=none;align=left;verticalAlign=top;spacingLeft=4;spacingRight=4;overflow=hidden;rotatable=0;points=[[0,0.5],[1,0.5]];portConstraint=eastwest;whiteSpace=wrap;html=1;" parent="JyBoucRdllpGloIT8rtI-12" vertex="1">
          <mxGeometry y="594" width="350" height="26" as="geometry" />
        </mxCell>
        <mxCell id="g5tavuga0tHeyg05Biz0-11" value="+ setPassword(String) : void" style="text;strokeColor=none;fillColor=none;align=left;verticalAlign=top;spacingLeft=4;spacingRight=4;overflow=hidden;rotatable=0;points=[[0,0.5],[1,0.5]];portConstraint=eastwest;whiteSpace=wrap;html=1;" parent="JyBoucRdllpGloIT8rtI-12" vertex="1">
          <mxGeometry y="620" width="350" height="26" as="geometry" />
        </mxCell>
        <mxCell id="g5tavuga0tHeyg05Biz0-10" value="+ getDni() : String" style="text;strokeColor=none;fillColor=none;align=left;verticalAlign=top;spacingLeft=4;spacingRight=4;overflow=hidden;rotatable=0;points=[[0,0.5],[1,0.5]];portConstraint=eastwest;whiteSpace=wrap;html=1;" parent="JyBoucRdllpGloIT8rtI-12" vertex="1">
          <mxGeometry y="646" width="350" height="26" as="geometry" />
        </mxCell>
        <mxCell id="D8bGTqo5iPkGZ_Vwlwev-3" value="+ setDni(String) : void" style="text;strokeColor=none;fillColor=none;align=left;verticalAlign=top;spacingLeft=4;spacingRight=4;overflow=hidden;rotatable=0;points=[[0,0.5],[1,0.5]];portConstraint=eastwest;whiteSpace=wrap;html=1;" parent="JyBoucRdllpGloIT8rtI-12" vertex="1">
          <mxGeometry y="672" width="350" height="26" as="geometry" />
        </mxCell>
        <mxCell id="D8bGTqo5iPkGZ_Vwlwev-4" value="+ toString() : String" style="text;strokeColor=none;fillColor=none;align=left;verticalAlign=top;spacingLeft=4;spacingRight=4;overflow=hidden;rotatable=0;points=[[0,0.5],[1,0.5]];portConstraint=eastwest;whiteSpace=wrap;html=1;" parent="JyBoucRdllpGloIT8rtI-12" vertex="1">
          <mxGeometry y="698" width="350" height="26" as="geometry" />
        </mxCell>
        <mxCell id="NOQlVdFscTQMoMnTkVEd-30" value="&lt;div&gt;&amp;lt;&amp;lt;Java class&amp;gt;&amp;gt;&lt;/div&gt;Feature" style="swimlane;fontStyle=1;align=center;verticalAlign=top;childLayout=stackLayout;horizontal=1;startSize=45;horizontalStack=0;resizeParent=1;resizeParentMax=0;resizeLast=0;collapsible=1;marginBottom=0;whiteSpace=wrap;html=1;" parent="1" vertex="1">
          <mxGeometry x="1260" y="384.5" width="160" height="209" as="geometry" />
        </mxCell>
        <mxCell id="NOQlVdFscTQMoMnTkVEd-31" value="- idFeature: int" style="text;strokeColor=none;fillColor=none;align=left;verticalAlign=top;spacingLeft=4;spacingRight=4;overflow=hidden;rotatable=0;points=[[0,0.5],[1,0.5]];portConstraint=eastwest;whiteSpace=wrap;html=1;" parent="NOQlVdFscTQMoMnTkVEd-30" vertex="1">
          <mxGeometry y="45" width="160" height="26" as="geometry" />
        </mxCell>
        <mxCell id="NOQlVdFscTQMoMnTkVEd-32" value="- featureInfo: String" style="text;strokeColor=none;fillColor=none;align=left;verticalAlign=top;spacingLeft=4;spacingRight=4;overflow=hidden;rotatable=0;points=[[0,0.5],[1,0.5]];portConstraint=eastwest;whiteSpace=wrap;html=1;" parent="NOQlVdFscTQMoMnTkVEd-30" vertex="1">
          <mxGeometry y="71" width="160" height="26" as="geometry" />
        </mxCell>
        <mxCell id="NOQlVdFscTQMoMnTkVEd-33" value="" style="line;strokeWidth=1;fillColor=none;align=left;verticalAlign=middle;spacingTop=-1;spacingLeft=3;spacingRight=3;rotatable=0;labelPosition=right;points=[];portConstraint=eastwest;strokeColor=inherit;" parent="NOQlVdFscTQMoMnTkVEd-30" vertex="1">
          <mxGeometry y="97" width="160" height="8" as="geometry" />
        </mxCell>
        <mxCell id="NOQlVdFscTQMoMnTkVEd-34" value="+ Feature(int, String)" style="text;strokeColor=none;fillColor=none;align=left;verticalAlign=top;spacingLeft=4;spacingRight=4;overflow=hidden;rotatable=0;points=[[0,0.5],[1,0.5]];portConstraint=eastwest;whiteSpace=wrap;html=1;" parent="NOQlVdFscTQMoMnTkVEd-30" vertex="1">
          <mxGeometry y="105" width="160" height="26" as="geometry" />
        </mxCell>
        <mxCell id="0r3SkYY5NkUkZRjsc_sh-38" value="+ getIdFeature(): int" style="text;strokeColor=none;fillColor=none;align=left;verticalAlign=top;spacingLeft=4;spacingRight=4;overflow=hidden;rotatable=0;points=[[0,0.5],[1,0.5]];portConstraint=eastwest;whiteSpace=wrap;html=1;" parent="NOQlVdFscTQMoMnTkVEd-30" vertex="1">
          <mxGeometry y="131" width="160" height="26" as="geometry" />
        </mxCell>
        <mxCell id="0r3SkYY5NkUkZRjsc_sh-39" value="+ setIdFeature(int): void" style="text;strokeColor=none;fillColor=none;align=left;verticalAlign=top;spacingLeft=4;spacingRight=4;overflow=hidden;rotatable=0;points=[[0,0.5],[1,0.5]];portConstraint=eastwest;whiteSpace=wrap;html=1;" parent="NOQlVdFscTQMoMnTkVEd-30" vertex="1">
          <mxGeometry y="157" width="160" height="26" as="geometry" />
        </mxCell>
        <mxCell id="0r3SkYY5NkUkZRjsc_sh-40" value="+ toString(): String" style="text;strokeColor=none;fillColor=none;align=left;verticalAlign=top;spacingLeft=4;spacingRight=4;overflow=hidden;rotatable=0;points=[[0,0.5],[1,0.5]];portConstraint=eastwest;whiteSpace=wrap;html=1;" parent="NOQlVdFscTQMoMnTkVEd-30" vertex="1">
          <mxGeometry y="183" width="160" height="26" as="geometry" />
        </mxCell>
        <mxCell id="JyBoucRdllpGloIT8rtI-22" value="&amp;lt;&amp;lt;Java class&amp;gt;&amp;gt;&lt;div&gt;Booking&lt;/div&gt;" style="swimlane;fontStyle=1;align=center;verticalAlign=top;childLayout=stackLayout;horizontal=1;startSize=40;horizontalStack=0;resizeParent=1;resizeParentMax=0;resizeLast=0;collapsible=1;marginBottom=0;whiteSpace=wrap;html=1;" parent="1" vertex="1">
          <mxGeometry x="950" y="-630" width="250" height="562" as="geometry" />
        </mxCell>
        <mxCell id="JyBoucRdllpGloIT8rtI-23" value="- idBooking : int" style="text;strokeColor=none;fillColor=none;align=left;verticalAlign=top;spacingLeft=4;spacingRight=4;overflow=hidden;rotatable=0;points=[[0,0.5],[1,0.5]];portConstraint=eastwest;whiteSpace=wrap;html=1;" parent="JyBoucRdllpGloIT8rtI-22" vertex="1">
          <mxGeometry y="40" width="250" height="26" as="geometry" />
        </mxCell>
        <mxCell id="JyBoucRdllpGloIT8rtI-30" value="- initDate : String" style="text;strokeColor=none;fillColor=none;align=left;verticalAlign=top;spacingLeft=4;spacingRight=4;overflow=hidden;rotatable=0;points=[[0,0.5],[1,0.5]];portConstraint=eastwest;whiteSpace=wrap;html=1;" parent="JyBoucRdllpGloIT8rtI-22" vertex="1">
          <mxGeometry y="66" width="250" height="26" as="geometry" />
        </mxCell>
        <mxCell id="JyBoucRdllpGloIT8rtI-29" value="- endDate : String" style="text;strokeColor=none;fillColor=none;align=left;verticalAlign=top;spacingLeft=4;spacingRight=4;overflow=hidden;rotatable=0;points=[[0,0.5],[1,0.5]];portConstraint=eastwest;whiteSpace=wrap;html=1;" parent="JyBoucRdllpGloIT8rtI-22" vertex="1">
          <mxGeometry y="92" width="250" height="26" as="geometry" />
        </mxCell>
        <mxCell id="JyBoucRdllpGloIT8rtI-28" value="- user : User" style="text;strokeColor=none;fillColor=none;align=left;verticalAlign=top;spacingLeft=4;spacingRight=4;overflow=hidden;rotatable=0;points=[[0,0.5],[1,0.5]];portConstraint=eastwest;whiteSpace=wrap;html=1;" parent="JyBoucRdllpGloIT8rtI-22" vertex="1">
          <mxGeometry y="118" width="250" height="26" as="geometry" />
        </mxCell>
        <mxCell id="JyBoucRdllpGloIT8rtI-27" value="- stay : Stay" style="text;strokeColor=none;fillColor=none;align=left;verticalAlign=top;spacingLeft=4;spacingRight=4;overflow=hidden;rotatable=0;points=[[0,0.5],[1,0.5]];portConstraint=eastwest;whiteSpace=wrap;html=1;" parent="JyBoucRdllpGloIT8rtI-22" vertex="1">
          <mxGeometry y="144" width="250" height="26" as="geometry" />
        </mxCell>
        <mxCell id="JyBoucRdllpGloIT8rtI-24" value="" style="line;strokeWidth=1;fillColor=none;align=left;verticalAlign=middle;spacingTop=-1;spacingLeft=3;spacingRight=3;rotatable=0;labelPosition=right;points=[];portConstraint=eastwest;strokeColor=inherit;" parent="JyBoucRdllpGloIT8rtI-22" vertex="1">
          <mxGeometry y="170" width="250" height="8" as="geometry" />
        </mxCell>
        <mxCell id="JyBoucRdllpGloIT8rtI-25" value="+ Booking(int, String, String, User, Stay)&lt;div&gt;&lt;br&gt;&lt;div&gt;&lt;br&gt;&lt;/div&gt;&lt;/div&gt;" style="text;strokeColor=none;fillColor=none;align=left;verticalAlign=top;spacingLeft=4;spacingRight=4;overflow=hidden;rotatable=0;points=[[0,0.5],[1,0.5]];portConstraint=eastwest;whiteSpace=wrap;html=1;" parent="JyBoucRdllpGloIT8rtI-22" vertex="1">
          <mxGeometry y="178" width="250" height="32" as="geometry" />
        </mxCell>
        <mxCell id="D8bGTqo5iPkGZ_Vwlwev-8" value="+ getIdBooking() : int" style="text;strokeColor=none;fillColor=none;align=left;verticalAlign=top;spacingLeft=4;spacingRight=4;overflow=hidden;rotatable=0;points=[[0,0.5],[1,0.5]];portConstraint=eastwest;whiteSpace=wrap;html=1;" parent="JyBoucRdllpGloIT8rtI-22" vertex="1">
          <mxGeometry y="210" width="250" height="32" as="geometry" />
        </mxCell>
        <mxCell id="D8bGTqo5iPkGZ_Vwlwev-9" value="&lt;div style=&quot;color: rgb(0, 0, 0);&quot;&gt;&lt;span style=&quot;background-color: rgb(255, 255, 255);&quot;&gt;+ setIdBooking(int) : void&lt;/span&gt;&lt;/div&gt;" style="text;strokeColor=none;fillColor=none;align=left;verticalAlign=top;spacingLeft=4;spacingRight=4;overflow=hidden;rotatable=0;points=[[0,0.5],[1,0.5]];portConstraint=eastwest;whiteSpace=wrap;html=1;" parent="JyBoucRdllpGloIT8rtI-22" vertex="1">
          <mxGeometry y="242" width="250" height="32" as="geometry" />
        </mxCell>
        <mxCell id="D8bGTqo5iPkGZ_Vwlwev-10" value="&lt;span&gt;+ getInitDate() : String&lt;/span&gt;" style="text;strokeColor=none;fillColor=none;align=left;verticalAlign=top;spacingLeft=4;spacingRight=4;overflow=hidden;rotatable=0;points=[[0,0.5],[1,0.5]];portConstraint=eastwest;whiteSpace=wrap;html=1;" parent="JyBoucRdllpGloIT8rtI-22" vertex="1">
          <mxGeometry y="274" width="250" height="32" as="geometry" />
        </mxCell>
        <mxCell id="D8bGTqo5iPkGZ_Vwlwev-11" value="&lt;div&gt;&lt;span style=&quot;color: light-dark(rgb(0, 0, 0), rgb(255, 255, 255));&quot;&gt;+ setInitDate(String) : void&lt;/span&gt;&lt;/div&gt;" style="text;strokeColor=none;fillColor=none;align=left;verticalAlign=top;spacingLeft=4;spacingRight=4;overflow=hidden;rotatable=0;points=[[0,0.5],[1,0.5]];portConstraint=eastwest;whiteSpace=wrap;html=1;" parent="JyBoucRdllpGloIT8rtI-22" vertex="1">
          <mxGeometry y="306" width="250" height="32" as="geometry" />
        </mxCell>
        <mxCell id="D8bGTqo5iPkGZ_Vwlwev-12" value="+ getEndDate() : String" style="text;strokeColor=none;fillColor=none;align=left;verticalAlign=top;spacingLeft=4;spacingRight=4;overflow=hidden;rotatable=0;points=[[0,0.5],[1,0.5]];portConstraint=eastwest;whiteSpace=wrap;html=1;" parent="JyBoucRdllpGloIT8rtI-22" vertex="1">
          <mxGeometry y="338" width="250" height="32" as="geometry" />
        </mxCell>
        <mxCell id="D8bGTqo5iPkGZ_Vwlwev-16" value="&lt;div&gt;+ setEndDate(String) : void&lt;/div&gt;&lt;div&gt;&lt;br&gt;&lt;/div&gt;" style="text;strokeColor=none;fillColor=none;align=left;verticalAlign=top;spacingLeft=4;spacingRight=4;overflow=hidden;rotatable=0;points=[[0,0.5],[1,0.5]];portConstraint=eastwest;whiteSpace=wrap;html=1;" parent="JyBoucRdllpGloIT8rtI-22" vertex="1">
          <mxGeometry y="370" width="250" height="32" as="geometry" />
        </mxCell>
        <mxCell id="D8bGTqo5iPkGZ_Vwlwev-15" value="&lt;div&gt;&lt;span style=&quot;background-color: transparent; color: light-dark(rgb(0, 0, 0), rgb(255, 255, 255));&quot;&gt;+ getUser() : User&lt;/span&gt;&lt;/div&gt;" style="text;strokeColor=none;fillColor=none;align=left;verticalAlign=top;spacingLeft=4;spacingRight=4;overflow=hidden;rotatable=0;points=[[0,0.5],[1,0.5]];portConstraint=eastwest;whiteSpace=wrap;html=1;" parent="JyBoucRdllpGloIT8rtI-22" vertex="1">
          <mxGeometry y="402" width="250" height="32" as="geometry" />
        </mxCell>
        <mxCell id="D8bGTqo5iPkGZ_Vwlwev-14" value="&lt;div&gt;+ setUser(User) : void&lt;/div&gt;&lt;div&gt;&lt;br&gt;&lt;/div&gt;" style="text;strokeColor=none;fillColor=none;align=left;verticalAlign=top;spacingLeft=4;spacingRight=4;overflow=hidden;rotatable=0;points=[[0,0.5],[1,0.5]];portConstraint=eastwest;whiteSpace=wrap;html=1;" parent="JyBoucRdllpGloIT8rtI-22" vertex="1">
          <mxGeometry y="434" width="250" height="32" as="geometry" />
        </mxCell>
        <mxCell id="D8bGTqo5iPkGZ_Vwlwev-13" value="+ getStay() : Stay" style="text;strokeColor=none;fillColor=none;align=left;verticalAlign=top;spacingLeft=4;spacingRight=4;overflow=hidden;rotatable=0;points=[[0,0.5],[1,0.5]];portConstraint=eastwest;whiteSpace=wrap;html=1;" parent="JyBoucRdllpGloIT8rtI-22" vertex="1">
          <mxGeometry y="466" width="250" height="32" as="geometry" />
        </mxCell>
        <mxCell id="D8bGTqo5iPkGZ_Vwlwev-18" value="+ setStay(Stay) : void" style="text;strokeColor=none;fillColor=none;align=left;verticalAlign=top;spacingLeft=4;spacingRight=4;overflow=hidden;rotatable=0;points=[[0,0.5],[1,0.5]];portConstraint=eastwest;whiteSpace=wrap;html=1;" parent="JyBoucRdllpGloIT8rtI-22" vertex="1">
          <mxGeometry y="498" width="250" height="32" as="geometry" />
        </mxCell>
        <mxCell id="D8bGTqo5iPkGZ_Vwlwev-17" value="+&amp;nbsp;toString() : String" style="text;strokeColor=none;fillColor=none;align=left;verticalAlign=top;spacingLeft=4;spacingRight=4;overflow=hidden;rotatable=0;points=[[0,0.5],[1,0.5]];portConstraint=eastwest;whiteSpace=wrap;html=1;" parent="JyBoucRdllpGloIT8rtI-22" vertex="1">
          <mxGeometry y="530" width="250" height="32" as="geometry" />
        </mxCell>
      </root>
    </mxGraphModel>
  </diagram>
</mxfile>
